<svg width="42" height="42" viewBox="0 0 42 42" fill="none" xmlns="http://www.w3.org/2000/svg">
  <path fill-rule="evenodd" clip-rule="evenodd"
    d="M33.5647 8.43526C26.6254 1.49594 15.3746 1.49594 8.43526 8.43527C1.49594 15.3745 1.49594 26.6254 8.43527 33.5647C15.3745 40.5041 26.6254 40.5041 33.5647 33.5647C40.5038 26.6257 40.5041 15.3754 33.5655 8.43601L33.5647 8.43526ZM35.8492 6.15077C44.0503 14.3518 44.0503 27.6483 35.8492 35.8492C27.6482 44.0503 14.3517 44.0503 6.15077 35.8492C-2.05025 27.6482 -2.05026 14.3517 6.15077 6.15076C14.3518 -2.05025 27.6483 -2.05026 35.8492 6.15077ZM18.8263 16.4186C18.493 17.1594 18.3076 17.9812 18.3076 18.8462C18.3076 22.1174 20.9594 24.7693 24.2307 24.7693C24.2652 24.7693 24.2996 24.769 24.334 24.7684C24.4401 24.753 24.548 24.7481 24.6564 24.7542C27.7305 24.5362 30.1537 21.9746 30.1537 18.8462C30.1537 15.5747 27.5037 12.9231 24.2307 12.9231C21.8883 12.9231 19.8636 14.2827 18.9026 16.2558C18.8801 16.3116 18.8546 16.366 18.8263 16.4186ZM15.1274 17.8781C13.1805 18.8437 11.846 20.8414 11.846 23.1539C11.846 26.4251 14.4979 29.077 17.7691 29.077C19.2457 29.077 20.5941 28.531 21.6303 27.6254C17.8414 26.5049 15.0768 22.9984 15.0768 18.8462C15.0768 18.5192 15.0939 18.1962 15.1274 17.8781ZM25.5687 27.903C23.9689 30.5305 21.0909 32.3077 17.7691 32.3077C12.7136 32.3077 8.61525 28.2094 8.61525 23.1539C8.61525 18.5661 11.9945 14.8034 16.3805 14.1352C17.9814 11.4732 20.8981 9.69233 24.2307 9.69233C29.2886 9.69233 33.3845 13.7909 33.3845 18.8462C33.3845 23.4471 29.9917 27.2557 25.5687 27.903Z"
    fill="#FBAB34" />
</svg>